<svg xmlns="http://www.w3.org/2000/svg" viewBox="0 9.800000190734863 194.9499969482422 39.10000228881836" data-asc="0.968" width="194.9499969482422" height="39.10000228881836"><defs/><g fill="#000000"><g transform="translate(0, 0)"><path d="M50.70 13.40L50.70 34.25Q50.70 41.45 47.03 45.17Q43.35 48.90 36.50 48.90Q32.80 48.90 29.93 47.73Q27.05 46.55 25.35 44.50Q23.60 46.55 20.77 47.73Q17.95 48.90 14.25 48.90Q7.40 48.90 3.70 45.15Q0 41.40 0 34.25L0 13.40L6.50 13.40L6.50 34.05Q6.50 38.80 8.47 41Q10.45 43.20 14.25 43.20Q22.10 43.20 22.10 34.05L22.10 13.40L28.60 13.40L28.60 34.05Q28.60 43.20 36.50 43.20Q44.25 43.20 44.25 34.05L44.25 13.40L50.70 13.40ZM100.30 21.70L100.30 36.45Q100.30 42.30 97.25 45.52Q94.20 48.75 88.50 48.75Q82.35 48.75 79.65 44.60Q78.25 46.70 76.08 47.73Q73.90 48.75 70.80 48.75Q65.10 48.75 62.08 45.52Q59.05 42.30 59.05 36.45L59.05 21.70L65.30 21.70L65.30 35.90Q65.30 39.70 66.63 41.50Q67.95 43.30 70.85 43.30Q73.75 43.30 75.15 41.47Q76.55 39.65 76.55 35.90L76.55 21.70L82.80 21.70L82.80 35.90Q82.80 39.65 84.20 41.47Q85.60 43.30 88.50 43.30Q91.40 43.30 92.73 41.50Q94.05 39.70 94.05 35.90L94.05 21.70L100.30 21.70ZM108.25 21.70L114.50 21.70L114.50 48.40L108.25 48.40L108.25 21.70M111.40 17.30Q109.70 17.30 108.55 16.22Q107.40 15.15 107.40 13.55Q107.40 11.95 108.55 10.88Q109.70 9.80 111.40 9.80Q113.10 9.80 114.25 10.82Q115.40 11.85 115.40 13.40Q115.40 15.05 114.28 16.17Q113.15 17.30 111.40 17.30ZM130.95 48.75Q127.70 48.75 124.60 47.90Q121.50 47.05 119.65 45.75L122.05 41Q123.85 42.20 126.38 42.92Q128.90 43.65 131.35 43.65Q136.95 43.65 136.95 40.70Q136.95 39.30 135.53 38.75Q134.10 38.20 130.95 37.70Q127.65 37.20 125.58 36.55Q123.50 35.90 121.98 34.27Q120.45 32.65 120.45 29.75Q120.45 25.95 123.63 23.67Q126.80 21.40 132.20 21.40Q134.95 21.40 137.70 22.02Q140.45 22.65 142.20 23.70L139.80 28.45Q136.40 26.45 132.15 26.45Q129.40 26.45 127.98 27.27Q126.55 28.10 126.55 29.45Q126.55 30.95 128.08 31.57Q129.60 32.20 132.80 32.75Q136 33.25 138.05 33.90Q140.10 34.55 141.58 36.10Q143.05 37.65 143.05 40.50Q143.05 44.25 139.80 46.50Q136.55 48.75 130.95 48.75ZM161.15 43.45Q165.50 43.45 168.40 40.55L171.70 44.40Q169.95 46.55 167.20 47.65Q164.45 48.75 161.00 48.75Q156.60 48.75 153.25 47Q149.90 45.25 148.08 42.13Q146.25 39 146.25 35.05Q146.25 31.15 148.03 28.02Q149.80 24.90 152.93 23.15Q156.05 21.40 160.00 21.40Q163.75 21.40 166.83 23.02Q169.90 24.65 171.70 27.67Q173.50 30.70 173.50 34.75L153.05 38.75Q154.00 41.05 156.10 42.25Q158.20 43.45 161.15 43.45M160.00 26.40Q156.55 26.40 154.43 28.65Q152.30 30.90 152.30 34.70L152.30 34.75L167.40 31.85Q166.75 29.40 164.78 27.90Q162.80 26.40 160.00 26.40ZM185.45 25.60Q188.15 21.40 194.95 21.40L194.95 27.35Q194.15 27.20 193.50 27.20Q189.85 27.20 187.80 29.32Q185.75 31.45 185.75 35.45L185.75 48.40L179.50 48.40L179.50 21.70L185.45 21.70L185.45 25.60Z"/></g></g></svg>